<svg preserveAspectRatio="none" overflow="visible" style="display: block;" width="25" height="25" viewBox="0 0 25 25" fill="none" xmlns="http://www.w3.org/2000/svg">
<path id="Vector" d="M2.77778 25C2.01389 25 1.36019 24.7282 0.816667 24.1847C0.273148 23.6412 0.000925926 22.987 0 22.2222V2.77778C0 2.01389 0.272222 1.36019 0.816667 0.816667C1.36111 0.273148 2.01481 0.000925926 2.77778 0H22.2222C22.9861 0 23.6403 0.272222 24.1847 0.816667C24.7292 1.36111 25.0009 2.01481 25 2.77778V22.2222C25 22.9861 24.7282 23.6403 24.1847 24.1847C23.6412 24.7292 22.987 25.0009 22.2222 25H2.77778ZM4.16667 19.4444H20.8333L15.625 12.5L11.4583 18.0556L8.33333 13.8889L4.16667 19.4444Z" fill="#08C2BC"/>
</svg>
